<svg width="316" height="316" viewBox="0 0 316 316" fill="none" xmlns="http://www.w3.org/2000/svg">
<rect x="5" y="5" width="306" height="306" rx="153" stroke="url(#paint0_linear_246_1331)" stroke-width="10"/>
<g clip-path="url(#clip0_246_1331)">
<rect x="8" y="8" width="300" height="300" rx="150" fill="white"/>
<g clip-path="url(#clip1_246_1331)">
<rect width="300" height="216" transform="translate(8 8)" fill="white" fill-opacity="0.2"/>
<rect width="300" height="216" transform="translate(8 8)" fill="url(#paint1_linear_246_1331)"/>
<rect x="108" y="8" width="100" height="30" rx="8" fill="url(#paint2_linear_246_1331)"/>
<g clip-path="url(#clip2_246_1331)">
<path d="M148.94 142.993C142.685 139.76 127.568 110.455 123.553 113.677C119.537 116.898 117.55 130.579 123.596 139.013C129.642 147.448 143.119 153.36 146.301 158.178C149.484 162.997 149.03 166.619 148.277 167.526C147.525 168.432 121.101 149.476 114.47 152.956C107.84 156.436 110.269 165.482 117.067 172.559C123.866 179.636 145.432 177.487 149.657 180.647C153.883 183.808 154.497 188.782 152.688 188.782C150.879 188.782 131.112 183.993 124.177 185.21C117.242 186.427 114.083 191.11 124.195 196.069C134.307 201.028 150.855 197.381 153.668 200.241C156.481 203.101 154.674 204.462 152.564 204.616C150.453 204.77 136.274 203.89 131.298 204.651C126.323 205.413 132.217 212.944 134.784 214.901C137.352 216.858 146.704 217.747 149.418 217.289C152.132 216.832 154.841 213.358 156.961 214.261C159.08 215.163 157.425 221.046 158.181 222.099C158.937 223.152 165.12 223.445 166.019 222.086C166.919 220.727 164.502 216.509 166.006 214.543C167.51 212.577 170.835 216.194 175.809 214.376C180.783 212.558 191.93 203.942 192.226 198.965C192.522 193.988 172.626 203.07 167.498 202.928C163.878 202.337 162.365 199.769 164.625 198.409C166.885 197.048 198.395 190.208 200.797 184.17C203.199 178.133 201.388 179.041 197.621 179.048C193.854 179.056 171.847 188.292 169.578 184.676C167.309 181.06 199.267 171.365 202.566 163.364C205.864 155.362 206.909 145.71 202.533 144.511C198.157 143.311 180.7 164.909 173.761 163.865C166.821 162.821 173.604 160.698 176.614 156.766C179.623 152.833 196.19 138.942 196.332 133.966C196.474 128.989 197.822 124.009 192.242 123.416C186.662 122.823 173.123 143.507 170.103 141.701C167.083 139.895 177.925 130.074 179.569 120.419C181.212 110.764 175.765 100.817 172.749 101.429C169.733 102.041 169.884 102.037 169.889 104.752C169.893 107.468 171.416 116.513 169.615 121.644C167.814 126.775 167.672 130.545 166.161 129.642C164.651 128.74 164.643 123.16 165.54 118.785C166.438 114.41 168.986 105.055 167.473 102.192C165.96 99.3288 162.924 88.3236 151.466 91.2032C140.008 94.0828 140.78 104.493 141.853 111.429C142.925 118.364 145.945 123.789 148.521 130.42C151.098 137.052 151.732 144.437 148.94 142.993Z" fill="#2E6F40"/>
</g>
</g>
<rect width="300" height="40" transform="translate(8 221)" fill="url(#paint3_linear_246_1331)"/>
<rect width="300" height="47" transform="translate(8 261)" fill="url(#paint4_linear_246_1331)"/>
</g>
<rect x="11" y="11" width="294" height="294" rx="147" stroke="white" stroke-width="6"/>
<defs>
<linearGradient id="paint0_linear_246_1331" x1="-4.28428e-06" y1="0.961831" x2="316" y2="315.038" gradientUnits="userSpaceOnUse">
<stop stop-opacity="0.2"/>
<stop offset="1" stop-opacity="0.6"/>
</linearGradient>
<linearGradient id="paint1_linear_246_1331" x1="58.9149" y1="-1.21512e-05" x2="271.172" y2="180.648" gradientUnits="userSpaceOnUse">
<stop stop-opacity="0.07"/>
<stop offset="1" stop-opacity="0.02"/>
</linearGradient>
<linearGradient id="paint2_linear_246_1331" x1="150.143" y1="8" x2="174.794" y2="20.8346" gradientUnits="userSpaceOnUse">
<stop stop-color="#B68045" stop-opacity="0.7"/>
<stop offset="1" stop-color="#B68045"/>
</linearGradient>
<linearGradient id="paint3_linear_246_1331" x1="126.429" y1="-2.95037e-06" x2="166.053" y2="46.4178" gradientUnits="userSpaceOnUse">
<stop stop-color="#2E6F40"/>
<stop offset="1" stop-color="#4F7942" stop-opacity="0.9"/>
</linearGradient>
<linearGradient id="paint4_linear_246_1331" x1="126.53" y1="-1.19656e-06" x2="173.47" y2="47" gradientUnits="userSpaceOnUse">
<stop stop-color="#7A4F42"/>
<stop offset="1" stop-color="#7A4F42" stop-opacity="0.9"/>
</linearGradient>
<clipPath id="clip0_246_1331">
<rect x="8" y="8" width="300" height="300" rx="150" fill="white"/>
</clipPath>
<clipPath id="clip1_246_1331">
<rect width="300" height="216" fill="white" transform="translate(8 8)"/>
</clipPath>
<clipPath id="clip2_246_1331">
<rect width="94.8794" height="134.273" fill="white" transform="translate(110.56 89.7271)"/>
</clipPath>
</defs>
</svg>
